<svg id="Capa_1" data-name="Capa 1" xmlns="http://www.w3.org/2000/svg" xmlns:xlink="http://www.w3.org/1999/xlink" viewBox="0 0 516.72 247.29"><defs><style>.cls-1{fill:none;}.cls-2{clip-path:url(#clip-path);}.cls-3{fill:#fff;}.cls-4{clip-path:url(#clip-path-2);}</style><clipPath id="clip-path"><rect class="cls-1" width="516.72" height="247.29"/></clipPath><clipPath id="clip-path-2"><path class="cls-1" d="M458.87,116c-5.59-7.16-14.3-12.38-24.08-12.38a30.53,30.53,0,0,0-30.53,30.53s-4.35,27.26,54.61,65.17c59-37.91,54.61-65.17,54.61-65.17A30.53,30.53,0,0,0,483,103.57c-9.78,0-18.49,5.23-24.08,12.38"/></clipPath></defs><title>VIVACONTIGO_BLANCO</title><g class="cls-2"><path class="cls-3" d="M44.52,131.62q-.13-1.55-.53-3.68a11.19,11.19,0,0,0-1.79-4.2,11,11,0,0,0-4-3.48,15.91,15.91,0,0,0-7.41-1.42q-6.75,0-10.33,3.61t-3.57,11.23v36q0,7.62,3.64,11.23T31,184.55a15.18,15.18,0,0,0,7.15-1.42,10.42,10.42,0,0,0,4-3.49,12.68,12.68,0,0,0,1.79-4.45,35.63,35.63,0,0,0,.6-4.45,4.71,4.71,0,0,1,2.65-4.13A13.22,13.22,0,0,1,53,165.44q4.5,0,6.62,1.68t2.12,6.58a23.93,23.93,0,0,1-2.32,10.59,22.58,22.58,0,0,1-6.55,8.07,31.4,31.4,0,0,1-10.06,5.1,42.77,42.77,0,0,1-12.71,1.81,42.16,42.16,0,0,1-11.78-1.61,26.48,26.48,0,0,1-9.73-5.1A23.65,23.65,0,0,1,2,183.45,35.2,35.2,0,0,1-.37,169.7v-36a34.34,34.34,0,0,1,2.45-13.75,24.25,24.25,0,0,1,6.62-9.1,26.5,26.5,0,0,1,9.73-5.1,42.11,42.11,0,0,1,11.78-1.61,44.21,44.21,0,0,1,12.71,1.74,31.17,31.17,0,0,1,10,4.9,21.9,21.9,0,0,1,8.81,17.88q0,5-2.12,6.65t-6.49,1.61A13.9,13.9,0,0,1,47,135.75a4.44,4.44,0,0,1-2.52-4.13"/><path class="cls-3" d="M103.31,199.27a44.31,44.31,0,0,1-12.25-1.61,26.42,26.42,0,0,1-9.8-5.1,23.66,23.66,0,0,1-6.56-9.1,35.2,35.2,0,0,1-2.38-13.75v-36a35.2,35.2,0,0,1,2.38-13.75,23.66,23.66,0,0,1,6.56-9.1,26.45,26.45,0,0,1,9.8-5.1,47.06,47.06,0,0,1,24.43,0,27.07,27.07,0,0,1,9.93,5.1,23.35,23.35,0,0,1,6.62,9.1,35.2,35.2,0,0,1,2.38,13.75v36A35.2,35.2,0,0,1,132,183.45a23.35,23.35,0,0,1-6.62,9.1,27,27,0,0,1-9.93,5.1,44.55,44.55,0,0,1-12.18,1.61m13.9-65.58q0-7.75-3.71-11.3t-10.2-3.55q-6.62,0-10.2,3.55t-3.57,11.3v36q0,7.75,3.57,11.3t10.2,3.55q6.49,0,10.2-3.55t3.71-11.3Z"/><path class="cls-3" d="M204.74,198.49a13.55,13.55,0,0,1-5.63-1.16,9.57,9.57,0,0,1-4.3-4.13l-28.47-51.9v51.9a4.26,4.26,0,0,1-2.71,3.94,13.64,13.64,0,0,1-11.85,0,4.26,4.26,0,0,1-2.65-3.94V109.42a4.22,4.22,0,0,1,2.65-4,13.44,13.44,0,0,1,6-1.29,22.71,22.71,0,0,1,4.11.32,8,8,0,0,1,3.11,1.29,12.4,12.4,0,0,1,2.71,2.71,40.24,40.24,0,0,1,2.91,4.58l25.56,48.15v-51.9a4.1,4.1,0,0,1,2.65-3.94,14.92,14.92,0,0,1,11.85,0,4.1,4.1,0,0,1,2.71,3.94V193.2a4.26,4.26,0,0,1-2.71,3.94,13,13,0,0,1-5.89,1.35"/><path class="cls-3" d="M284.32,104.12a4.38,4.38,0,0,1,4.1,2.39,10.37,10.37,0,0,1,1.33,5.1,10.09,10.09,0,0,1-1.39,5.29,4.44,4.44,0,0,1-4,2.32H265v74a4.26,4.26,0,0,1-2.71,3.94,13.62,13.62,0,0,1-11.85,0,4.26,4.26,0,0,1-2.65-3.94v-74H228.31a4.46,4.46,0,0,1-4-2.26,10,10,0,0,1-1.39-5.36,10.35,10.35,0,0,1,1.32-5.1,4.38,4.38,0,0,1,4.11-2.39Z"/><path class="cls-3" d="M299.15,109.29a4.1,4.1,0,0,1,2.65-3.94,14.92,14.92,0,0,1,11.85,0,4.1,4.1,0,0,1,2.71,3.94V193.2a4.26,4.26,0,0,1-2.71,3.94,13.64,13.64,0,0,1-11.85,0,4.26,4.26,0,0,1-2.65-3.94Z"/><path class="cls-3" d="M376.09,131.62a23.09,23.09,0,0,0-.73-4.58,10.34,10.34,0,0,0-2.12-4.07,11.34,11.34,0,0,0-4.11-3,16.82,16.82,0,0,0-6.82-1.16q-6.75,0-10.33,3.61t-3.58,11.23v36q0,7.62,3.58,11.23t10.2,3.61q6.49,0,10.2-3.61t3.71-11.23v-7.62H365.36a4.44,4.44,0,0,1-4-2,8.1,8.1,0,0,1-1.32-4.58,8.2,8.2,0,0,1,1.32-4.52,4.4,4.4,0,0,1,4-2.07h22.51a5,5,0,0,1,4,1.61,5.65,5.65,0,0,1,1.39,3.81V169.7a35.2,35.2,0,0,1-2.38,13.75,23.35,23.35,0,0,1-6.62,9.1,27,27,0,0,1-9.93,5.1,47.06,47.06,0,0,1-24.43,0,26.4,26.4,0,0,1-9.8-5.1,23.65,23.65,0,0,1-6.55-9.1,35.2,35.2,0,0,1-2.38-13.75v-36a35.2,35.2,0,0,1,2.38-13.75,23.65,23.65,0,0,1,6.55-9.1,26.55,26.55,0,0,1,9.67-5.1,41.91,41.91,0,0,1,11.85-1.61,45.13,45.13,0,0,1,12.65,1.68,30.37,30.37,0,0,1,10,4.91,23.19,23.19,0,0,1,6.62,7.81,22.19,22.19,0,0,1,2.38,10.39q0,4.91-2.19,6.46t-6.42,1.55a14.09,14.09,0,0,1-6-1.16,4.41,4.41,0,0,1-2.65-4.13"/></g><g class="cls-4"><path class="cls-3" d="M466,160.25v-.17c-.41,17.5-.92,32.43-.92,32.43l1.73,1.49a185.88,185.88,0,0,0,25.2-20.6Z"/><path class="cls-3" d="M451.36,143.64c-.1-5.15-.17-10.21-.2-14.86,0-3.76,4.86-13.11,7.47-13.11h0c-5.59-7-14.19-12.1-23.84-12.1a30.53,30.53,0,0,0-30.53,30.53s-2.15,13.5,17.1,34.7Z"/><path class="cls-3" d="M466.43,128.75c0,4.66-.07,9.72-.15,14.87l30.15,25.11c19.19-21.17,17-34.64,17-34.64A30.53,30.53,0,0,0,483,103.57c-9.67,0-18.28,5.1-23.87,12.13,2.65.36,7.36,9.36,7.35,13.05"/><path class="cls-3" d="M451,194l1.74-1.51s-.58-15.08-1-32.69v.44l-25.89,13.19A186.07,186.07,0,0,0,451,194"/></g><g class="cls-2"><path class="cls-3" d="M-.14,5.71a3.7,3.7,0,0,1-.23-.93,3.31,3.31,0,0,1,2-3A8,8,0,0,1,5.53.73q2.89,0,3.59,2.2L29.51,71.74,49.78,2.93A3.32,3.32,0,0,1,53.26.73a7.62,7.62,0,0,1,4.06,1.22,3.49,3.49,0,0,1,2,3,1.29,1.29,0,0,1-.06.4,1.25,1.25,0,0,0-.06.41l-23.52,77a4.41,4.41,0,0,1-2.32,2.49,8.42,8.42,0,0,1-3.82.87,8.3,8.3,0,0,1-3.65-.81,4.21,4.21,0,0,1-2.26-2.55Z"/><path class="cls-3" d="M78.74,4.09a2.7,2.7,0,0,1,1.51-2.55,7.36,7.36,0,0,1,6.72,0,2.7,2.7,0,0,1,1.5,2.55V81.94A2.83,2.83,0,0,1,87,84.54a6.94,6.94,0,0,1-6.72,0,2.82,2.82,0,0,1-1.51-2.61Z"/><path class="cls-3" d="M108.17,5.71a3.7,3.7,0,0,1-.23-.93,3.31,3.31,0,0,1,2-3,8,8,0,0,1,3.94-1.1q2.89,0,3.59,2.2l20.39,68.81L158.09,2.93a3.32,3.32,0,0,1,3.48-2.2,7.62,7.62,0,0,1,4.06,1.22,3.49,3.49,0,0,1,2,3,1.29,1.29,0,0,1-.06.4,1.25,1.25,0,0,0-.06.41L144,82.75a4.42,4.42,0,0,1-2.32,2.49,8.42,8.42,0,0,1-3.82.87,8.3,8.3,0,0,1-3.65-.81,4.21,4.21,0,0,1-2.26-2.55Z"/><path class="cls-3" d="M182.31,85.41a8,8,0,0,1-3.94-1.1,3.31,3.31,0,0,1-2-3,3.72,3.72,0,0,1,.23-.93l23.63-77A4.19,4.19,0,0,1,202.58.85,8.66,8.66,0,0,1,206.29,0,8.19,8.19,0,0,1,210,.91a4.42,4.42,0,0,1,2.32,2.49l23.63,77a1.24,1.24,0,0,0,.06.4,1.28,1.28,0,0,1,.06.41,3.49,3.49,0,0,1-2,3A7.62,7.62,0,0,1,230,85.41a4.42,4.42,0,0,1-2.2-.52,2.73,2.73,0,0,1-1.27-1.68L221.46,66H191l-5.1,17.26q-.69,2.2-3.59,2.2M219.14,58,206.29,14.4,193.2,58Z"/><path class="cls-3" d="M15,216a.71.71,0,0,1,.65.33,1.28,1.28,0,0,1,.21.7,1.43,1.43,0,0,1-.21.75.7.7,0,0,1-.65.34H9.26v22a.73.73,0,0,1-.36.67,1.43,1.43,0,0,1-.77.22,1.41,1.41,0,0,1-.78-.22.74.74,0,0,1-.34-.67v-22H1.27a.72.72,0,0,1-.63-.32,1.26,1.26,0,0,1-.22-.73,1.37,1.37,0,0,1,.2-.72.7.7,0,0,1,.65-.34Z"/><path class="cls-3" d="M20.49,224.65a6.83,6.83,0,0,1,2.88.55,5.18,5.18,0,0,1,1.91,1.47,5.81,5.81,0,0,1,1.06,2.12,9.39,9.39,0,0,1,.32,2.46v8.88a.79.79,0,0,1-.31.63,1.19,1.19,0,0,1-.79.26,1.06,1.06,0,0,1-.73-.26.81.81,0,0,1-.29-.63v-1.5a9.73,9.73,0,0,1-2.15,1.83,5.49,5.49,0,0,1-3,.8,5.85,5.85,0,0,1-1.83-.27,4.08,4.08,0,0,1-1.47-.84,3.9,3.9,0,0,1-1-1.4,5,5,0,0,1-.36-2,4.2,4.2,0,0,1,.58-2.31A4.07,4.07,0,0,1,17,233a7.93,7.93,0,0,1,2.51-.73,23.49,23.49,0,0,1,3.24-.2h1.74v-.82a6.24,6.24,0,0,0-.22-1.64,4.6,4.6,0,0,0-.7-1.49,3.64,3.64,0,0,0-3.11-1.52,5.91,5.91,0,0,0-1.45.15,6.76,6.76,0,0,0-1,.34c-.29.13-.52.24-.7.34a1,1,0,0,1-.48.15.71.71,0,0,1-.67-.41,1.64,1.64,0,0,1-.22-.78.84.84,0,0,1,.41-.65,4.12,4.12,0,0,1,1.07-.55,9.8,9.8,0,0,1,1.49-.39,8.91,8.91,0,0,1,1.64-.15m4,8.94H23q-1.2,0-2.27.09a7.46,7.46,0,0,0-1.93.39,3.1,3.1,0,0,0-1.35.89,2.33,2.33,0,0,0-.5,1.57,2.58,2.58,0,0,0,.85,2.17,3.33,3.33,0,0,0,2.12.67,4.1,4.1,0,0,0,1.62-.34,6,6,0,0,0,1.45-.87,4.74,4.74,0,0,0,1-1.16,2.3,2.3,0,0,0,.39-1.21Z"/><path class="cls-3" d="M37.83,226.7a4.2,4.2,0,0,0-1.66.34,4.39,4.39,0,0,0-1.43,1,5.06,5.06,0,0,0-1,1.57,5.28,5.28,0,0,0-.39,2.08v8.43a.79.79,0,0,1-.33.61,1.2,1.2,0,0,1-.8.27,1.14,1.14,0,0,1-.78-.27.81.81,0,0,1-.31-.61V225.68a.7.7,0,0,1,.31-.6,1.31,1.31,0,0,1,.78-.22,1.25,1.25,0,0,1,.75.22.7.7,0,0,1,.31.6v1.67A5.94,5.94,0,0,1,35,225.49a4.72,4.72,0,0,1,2.83-.84H39a.79.79,0,0,1,.63.31,1.13,1.13,0,0,1,0,1.43.8.8,0,0,1-.63.31Z"/><path class="cls-3" d="M43.77,217.24a1.45,1.45,0,0,1,1,.41,1.32,1.32,0,0,1,.43,1,1.38,1.38,0,0,1-.43,1,1.41,1.41,0,0,1-1,.43,1.51,1.51,0,0,1-1.09-.43,1.35,1.35,0,0,1-.44-1,1.3,1.3,0,0,1,.44-1,1.55,1.55,0,0,1,1.09-.41m0,7.61a1.39,1.39,0,0,1,.8.22.69.69,0,0,1,.32.6v14.44a.8.8,0,0,1-.32.61,1.2,1.2,0,0,1-.8.27,1.13,1.13,0,0,1-.79-.27.81.81,0,0,1-.31-.61V225.68a.7.7,0,0,1,.31-.6,1.3,1.3,0,0,1,.79-.22"/><path class="cls-3" d="M51.69,224.86h4.88a.68.68,0,0,1,.58.27,1,1,0,0,1,.21.61,1.12,1.12,0,0,1-.21.67.67.67,0,0,1-.58.29H51.69v13.45a.72.72,0,0,1-.34.62,1.4,1.4,0,0,1-.82.24,1.19,1.19,0,0,1-.75-.24.74.74,0,0,1-.31-.62V221.24A6.08,6.08,0,0,1,50,218.8a6.7,6.7,0,0,1,1.31-2,6.09,6.09,0,0,1,1.93-1.35,5.67,5.67,0,0,1,2.34-.49h.85a.86.86,0,0,1,.7.31,1.09,1.09,0,0,1,.26.72,1,1,0,0,1-.26.68.87.87,0,0,1-.7.31h-.58a3.92,3.92,0,0,0-1.64.34,4.21,4.21,0,0,0-1.3.91,4.42,4.42,0,0,0-.87,1.3,3.81,3.81,0,0,0-.32,1.55Z"/><path class="cls-3" d="M64.77,224.65a6.83,6.83,0,0,1,2.88.55,5.18,5.18,0,0,1,1.91,1.47,5.81,5.81,0,0,1,1.06,2.12,9.39,9.39,0,0,1,.32,2.46v8.88a.79.79,0,0,1-.31.63,1.19,1.19,0,0,1-.79.26,1.06,1.06,0,0,1-.73-.26.81.81,0,0,1-.29-.63v-1.5a9.73,9.73,0,0,1-2.15,1.83,5.49,5.49,0,0,1-3,.8,5.85,5.85,0,0,1-1.83-.27,4.08,4.08,0,0,1-1.47-.84,3.9,3.9,0,0,1-1-1.4,5,5,0,0,1-.36-2,4.2,4.2,0,0,1,.58-2.31A4.07,4.07,0,0,1,61.24,233a7.93,7.93,0,0,1,2.51-.73,23.49,23.49,0,0,1,3.24-.2h1.74v-.82a6.24,6.24,0,0,0-.22-1.64,4.6,4.6,0,0,0-.7-1.49,3.64,3.64,0,0,0-3.11-1.52,5.91,5.91,0,0,0-1.45.15,6.76,6.76,0,0,0-1,.34c-.29.13-.52.24-.7.34a1,1,0,0,1-.48.15.71.71,0,0,1-.67-.41,1.64,1.64,0,0,1-.22-.78.84.84,0,0,1,.41-.65,4.12,4.12,0,0,1,1.07-.55,9.8,9.8,0,0,1,1.49-.39,8.91,8.91,0,0,1,1.64-.15m4,8.94H67.3q-1.2,0-2.27.09a7.46,7.46,0,0,0-1.93.39,3.1,3.1,0,0,0-1.35.89,2.33,2.33,0,0,0-.5,1.57,2.58,2.58,0,0,0,.85,2.17,3.33,3.33,0,0,0,2.12.67,4.1,4.1,0,0,0,1.62-.34,6,6,0,0,0,1.45-.87,4.74,4.74,0,0,0,1-1.16,2.3,2.3,0,0,0,.39-1.21Z"/><path class="cls-3" d="M79.65,239.37a4.05,4.05,0,0,0,2.73-.72,2.24,2.24,0,0,0,.79-1.71,2.32,2.32,0,0,0-.63-1.74,4.8,4.8,0,0,0-1.55-1,16.54,16.54,0,0,0-2-.67,9.72,9.72,0,0,1-2-.77,4.79,4.79,0,0,1-1.55-1.26,3.45,3.45,0,0,1-.63-2.22,4.86,4.86,0,0,1,.29-1.64,4,4,0,0,1,.94-1.49,5,5,0,0,1,1.67-1.09,6.48,6.48,0,0,1,2.49-.43,9,9,0,0,1,1.67.15,10.54,10.54,0,0,1,1.47.38,3.58,3.58,0,0,1,1,.53.83.83,0,0,1,.39.61,1.56,1.56,0,0,1-.26.72.76.76,0,0,1-.67.44,1.21,1.21,0,0,1-.51-.15c-.21-.1-.46-.21-.75-.32a10.18,10.18,0,0,0-1-.33,5.25,5.25,0,0,0-1.33-.15,4.38,4.38,0,0,0-1.6.26,3.24,3.24,0,0,0-1.06.65,2.27,2.27,0,0,0-.58.87,2.65,2.65,0,0,0-.17.89,1.82,1.82,0,0,0,.63,1.5,5.13,5.13,0,0,0,1.57.84q.94.33,2,.61a8.66,8.66,0,0,1,2,.82,4.74,4.74,0,0,1,1.57,1.43,4.19,4.19,0,0,1,.63,2.44,4,4,0,0,1-1.43,3.23,6.24,6.24,0,0,1-4.06,1.18,9.33,9.33,0,0,1-2.18-.24,7.68,7.68,0,0,1-1.69-.6,3.68,3.68,0,0,1-1.09-.8,1.29,1.29,0,0,1-.39-.82,1.24,1.24,0,0,1,.22-.68.65.65,0,0,1,.56-.34.93.93,0,0,1,.58.26,6,6,0,0,0,.8.55,7,7,0,0,0,1.23.55,5.85,5.85,0,0,0,1.9.26"/><path class="cls-3" d="M97,215a1.39,1.39,0,0,1,.8.22.69.69,0,0,1,.32.6v11.47a5.9,5.9,0,0,1,1.71-1.79,4.77,4.77,0,0,1,2.83-.8,5.76,5.76,0,0,1,2.37.49,6.15,6.15,0,0,1,1.95,1.37,6.48,6.48,0,0,1,1.79,4.52v3.72a6.24,6.24,0,0,1-.49,2.44,6.81,6.81,0,0,1-3.26,3.5,5.06,5.06,0,0,1-2.29.55,5.31,5.31,0,0,1-2.87-.78,4.81,4.81,0,0,1-1.81-1.84v1.5a.81.81,0,0,1-.31.61A1.09,1.09,0,0,1,97,241a1.14,1.14,0,0,1-.78-.27.81.81,0,0,1-.31-.61V215.78a.7.7,0,0,1,.31-.6A1.31,1.31,0,0,1,97,215M106.55,231a4,4,0,0,0-.34-1.6,4.6,4.6,0,0,0-.92-1.38,4.83,4.83,0,0,0-1.35-1,3.73,3.73,0,0,0-1.66-.38,4.1,4.1,0,0,0-1.52.29,4.15,4.15,0,0,0-1.33.85,4.24,4.24,0,0,0-1,1.36,4.44,4.44,0,0,0-.36,1.83v4.78a2.1,2.1,0,0,0,.32,1,4.9,4.9,0,0,0,.89,1.13,5.12,5.12,0,0,0,1.33.92,3.71,3.71,0,0,0,1.66.38,3.64,3.64,0,0,0,1.62-.38,4.63,4.63,0,0,0,1.35-1,4.74,4.74,0,0,0,.92-1.42,4.19,4.19,0,0,0,.34-1.65Z"/><path class="cls-3" d="M117.31,224.65a6.83,6.83,0,0,1,2.89.55,5.17,5.17,0,0,1,1.91,1.47,5.8,5.8,0,0,1,1.06,2.12,9.35,9.35,0,0,1,.32,2.46v8.88a.79.79,0,0,1-.31.63,1.18,1.18,0,0,1-.78.26,1.06,1.06,0,0,1-.73-.26.81.81,0,0,1-.29-.63v-1.5a9.71,9.71,0,0,1-2.15,1.83,5.48,5.48,0,0,1-3,.8,5.85,5.85,0,0,1-1.83-.27,4.08,4.08,0,0,1-1.47-.84,3.89,3.89,0,0,1-1-1.4,5,5,0,0,1-.36-2,4.2,4.2,0,0,1,.58-2.31,4.07,4.07,0,0,1,1.62-1.43,7.93,7.93,0,0,1,2.51-.73,23.5,23.5,0,0,1,3.24-.2h1.74v-.82a6.24,6.24,0,0,0-.22-1.64,4.6,4.6,0,0,0-.7-1.49,3.64,3.64,0,0,0-3.11-1.52,5.92,5.92,0,0,0-1.45.15,6.8,6.8,0,0,0-1,.34q-.43.19-.7.34a1,1,0,0,1-.48.15.72.72,0,0,1-.67-.41,1.65,1.65,0,0,1-.22-.78.84.84,0,0,1,.41-.65,4.12,4.12,0,0,1,1.08-.55,9.76,9.76,0,0,1,1.48-.39,8.92,8.92,0,0,1,1.64-.15m4,8.94h-1.43q-1.19,0-2.27.09a7.46,7.46,0,0,0-1.93.39,3.11,3.11,0,0,0-1.35.89,2.34,2.34,0,0,0-.5,1.57,2.58,2.58,0,0,0,.85,2.17,3.34,3.34,0,0,0,2.12.67,4.11,4.11,0,0,0,1.62-.34,6,6,0,0,0,1.45-.87,4.7,4.7,0,0,0,1-1.16,2.3,2.3,0,0,0,.39-1.21Z"/><path class="cls-3" d="M129,224.86a1.39,1.39,0,0,1,.8.22.69.69,0,0,1,.32.6v16.8a12.29,12.29,0,0,1-.26,2.61,6.43,6.43,0,0,1-.79,2,3.8,3.8,0,0,1-1.38,1.33,4.22,4.22,0,0,1-2.08.48,1.08,1.08,0,0,1-.87-.31,1,1,0,0,1-.26-.68,1,1,0,0,1,.27-.75.92.92,0,0,1,.68-.27,2,2,0,0,0,2-1.26,4.65,4.65,0,0,0,.34-1.4,17.16,17.16,0,0,0,.08-1.77v-16.8a.7.7,0,0,1,.31-.6,1.31,1.31,0,0,1,.79-.22m0-7.61a1.45,1.45,0,0,1,1,.41,1.32,1.32,0,0,1,.43,1,1.38,1.38,0,0,1-.43,1,1.41,1.41,0,0,1-1,.43,1.51,1.51,0,0,1-1.09-.43,1.35,1.35,0,0,1-.44-1,1.3,1.3,0,0,1,.44-1,1.55,1.55,0,0,1,1.09-.41"/><path class="cls-3" d="M139.33,224.65a6.83,6.83,0,0,1,2.88.55,5.18,5.18,0,0,1,1.91,1.47,5.81,5.81,0,0,1,1.06,2.12,9.39,9.39,0,0,1,.32,2.46v8.88a.79.79,0,0,1-.31.63,1.18,1.18,0,0,1-.79.26,1.06,1.06,0,0,1-.73-.26.81.81,0,0,1-.29-.63v-1.5a9.74,9.74,0,0,1-2.15,1.83,5.48,5.48,0,0,1-3,.8,5.86,5.86,0,0,1-1.83-.27,4.08,4.08,0,0,1-1.47-.84,3.9,3.9,0,0,1-1-1.4,5,5,0,0,1-.36-2,4.19,4.19,0,0,1,.58-2.31,4.06,4.06,0,0,1,1.62-1.43,7.92,7.92,0,0,1,2.51-.73,23.49,23.49,0,0,1,3.24-.2h1.74v-.82a6.24,6.24,0,0,0-.22-1.64,4.58,4.58,0,0,0-.7-1.49,3.64,3.64,0,0,0-3.11-1.52,5.92,5.92,0,0,0-1.45.15,6.77,6.77,0,0,0-1,.34q-.43.19-.7.34a1,1,0,0,1-.48.15.71.71,0,0,1-.66-.41,1.65,1.65,0,0,1-.22-.78.84.84,0,0,1,.41-.65,4.13,4.13,0,0,1,1.07-.55,9.74,9.74,0,0,1,1.49-.39,8.9,8.9,0,0,1,1.64-.15m4,8.94h-1.43q-1.19,0-2.27.09a7.46,7.46,0,0,0-1.93.39,3.1,3.1,0,0,0-1.35.89,2.33,2.33,0,0,0-.5,1.57,2.58,2.58,0,0,0,.85,2.17,3.33,3.33,0,0,0,2.12.67,4.1,4.1,0,0,0,1.62-.34,6,6,0,0,0,1.45-.87,4.72,4.72,0,0,0,1-1.16,2.31,2.31,0,0,0,.39-1.21Z"/><path class="cls-3" d="M154.21,239.37a4.05,4.05,0,0,0,2.73-.72,2.23,2.23,0,0,0,.79-1.71,2.32,2.32,0,0,0-.63-1.74,4.79,4.79,0,0,0-1.55-1,16.46,16.46,0,0,0-2-.67,9.74,9.74,0,0,1-2-.77,4.79,4.79,0,0,1-1.55-1.26,3.45,3.45,0,0,1-.63-2.22,4.89,4.89,0,0,1,.29-1.64,4,4,0,0,1,.94-1.49,5,5,0,0,1,1.67-1.09,6.49,6.49,0,0,1,2.49-.43,9,9,0,0,1,1.67.15,10.48,10.48,0,0,1,1.47.38,3.58,3.58,0,0,1,1,.53.83.83,0,0,1,.39.61,1.57,1.57,0,0,1-.26.72.76.76,0,0,1-.67.44,1.21,1.21,0,0,1-.51-.15c-.21-.1-.46-.21-.75-.32a10.26,10.26,0,0,0-1-.33,5.25,5.25,0,0,0-1.33-.15,4.39,4.39,0,0,0-1.6.26,3.22,3.22,0,0,0-1.06.65,2.26,2.26,0,0,0-.58.87,2.65,2.65,0,0,0-.17.89,1.82,1.82,0,0,0,.63,1.5,5.13,5.13,0,0,0,1.57.84q.94.33,2,.61a8.63,8.63,0,0,1,2,.82,4.74,4.74,0,0,1,1.57,1.43,4.2,4.2,0,0,1,.63,2.44,4,4,0,0,1-1.43,3.23,6.24,6.24,0,0,1-4.06,1.18,9.32,9.32,0,0,1-2.18-.24,7.7,7.7,0,0,1-1.69-.6,3.65,3.65,0,0,1-1.09-.8,1.29,1.29,0,0,1-.39-.82,1.24,1.24,0,0,1,.22-.68.65.65,0,0,1,.56-.34.93.93,0,0,1,.58.26,6,6,0,0,0,.8.55,7,7,0,0,0,1.23.55,5.86,5.86,0,0,0,1.9.26"/><path class="cls-3" d="M178.86,214.79a1.34,1.34,0,0,1,.78.24.7.7,0,0,1,.34.58v25.26a.74.74,0,0,1-.34.6,1.27,1.27,0,0,1-.78.26,1.25,1.25,0,0,1-.8-.26.75.75,0,0,1-.32-.6V215.61a.7.7,0,0,1,.32-.58,1.32,1.32,0,0,1,.8-.24"/><path class="cls-3" d="M204.87,239.13a5.49,5.49,0,0,0,3.74-1.18,4.44,4.44,0,0,0,1.35-3.53,4.7,4.7,0,0,0-.84-3,6.42,6.42,0,0,0-2.1-1.74,17.38,17.38,0,0,0-2.73-1.14,14.78,14.78,0,0,1-2.73-1.2,6.37,6.37,0,0,1-2.1-1.91,5.63,5.63,0,0,1-.84-3.28,6.12,6.12,0,0,1,.68-3.07,5.47,5.47,0,0,1,1.74-1.9,6.77,6.77,0,0,1,2.34-1,11.85,11.85,0,0,1,2.47-.27,13.41,13.41,0,0,1,2,.15,11.6,11.6,0,0,1,1.86.43,4.8,4.8,0,0,1,1.37.67,1.08,1.08,0,0,1,.53.84,1.72,1.72,0,0,1-.26.8.8.8,0,0,1-.74.46,1.28,1.28,0,0,1-.6-.2,9.52,9.52,0,0,0-.9-.44,9,9,0,0,0-1.35-.44,7.87,7.87,0,0,0-1.93-.21,8.9,8.9,0,0,0-1.84.19,4.58,4.58,0,0,0-1.59.65,3.33,3.33,0,0,0-1.11,1.23,4,4,0,0,0-.41,1.9,3.38,3.38,0,0,0,.84,2.44,6.83,6.83,0,0,0,2.1,1.45,25.14,25.14,0,0,0,2.73,1.06,11.25,11.25,0,0,1,2.73,1.31,6.92,6.92,0,0,1,2.1,2.22,7.2,7.2,0,0,1,.84,3.74,8.5,8.5,0,0,1-.53,3.14,5.85,5.85,0,0,1-1.49,2.2,5.93,5.93,0,0,1-2.29,1.28,10.62,10.62,0,0,1-5.84,0,9.71,9.71,0,0,1-2.2-1,5.08,5.08,0,0,1-1.38-1.19,1.94,1.94,0,0,1-.48-1.11,1.38,1.38,0,0,1,.33-.84.9.9,0,0,1,.7-.43.92.92,0,0,1,.68.44,6.86,6.86,0,0,0,1,1,6.54,6.54,0,0,0,1.6,1,6.41,6.41,0,0,0,2.6.44"/><path class="cls-3" d="M222,224.65a6.51,6.51,0,0,1,2.42.46,6.23,6.23,0,0,1,3.43,3.24,5.91,5.91,0,0,1,.53,2.51,3.72,3.72,0,0,1-.26,1.54,1.94,1.94,0,0,1-.67.82,2,2,0,0,1-1,.32q-.55.05-1.09.05h-7.72v1.26a4,4,0,0,0,1.47,3.24,6.54,6.54,0,0,0,5.39,1,5.53,5.53,0,0,0,1.09-.46,8.83,8.83,0,0,0,.75-.48,1,1,0,0,1,.58-.22.82.82,0,0,1,.68.38,1.21,1.21,0,0,1,.27.68,1.12,1.12,0,0,1-.36.7,3.58,3.58,0,0,1-1,.73,7.62,7.62,0,0,1-1.6.58,8.69,8.69,0,0,1-2.13.24,9.08,9.08,0,0,1-3-.46,6.8,6.8,0,0,1-2.32-1.31,6,6,0,0,1-1.52-2,6.33,6.33,0,0,1-.55-2.66v-3.82a5.83,5.83,0,0,1,.51-2.41,6.55,6.55,0,0,1,6-3.87M224.5,232a2.79,2.79,0,0,0,1.36-.22,1.05,1.05,0,0,0,.34-.94,4.23,4.23,0,0,0-.31-1.59,4.51,4.51,0,0,0-.87-1.38,4.1,4.1,0,0,0-3.09-1.33,4.21,4.21,0,0,0-1.65.32,4.34,4.34,0,0,0-1.35.89A4.19,4.19,0,0,0,218,229a3.94,3.94,0,0,0-.34,1.62V232Z"/><path class="cls-3" d="M237.37,237.22a6.08,6.08,0,0,1-2.63-.58,4.29,4.29,0,0,0-.72.5,1,1,0,0,0-.34.84,1.1,1.1,0,0,0,.78,1.09,9,9,0,0,0,2,.48q1.18.17,2.56.31a10.6,10.6,0,0,1,2.56.56,4.88,4.88,0,0,1,2,1.28,3.4,3.4,0,0,1,.78,2.39,4.31,4.31,0,0,1-.49,2.1,4.4,4.4,0,0,1-1.38,1.52,6.42,6.42,0,0,1-2.12.92,11.11,11.11,0,0,1-2.7.31,11.68,11.68,0,0,1-2.76-.31,7,7,0,0,1-2.18-.91,4.72,4.72,0,0,1-1.45-1.43,3.72,3.72,0,0,1-.29-3.23,3.61,3.61,0,0,1,.65-1,4.59,4.59,0,0,1,.94-.8,5.61,5.61,0,0,1,1.07-.55,3.39,3.39,0,0,1-1.35-.8,2.1,2.1,0,0,1-.53-1.55,2.25,2.25,0,0,1,.46-1.5,4.05,4.05,0,0,1,1.25-1A5.11,5.11,0,0,1,232,234a5.92,5.92,0,0,1-.49-2.44v-1.3a6,6,0,0,1,.41-2.25,5.12,5.12,0,0,1,1.18-1.78,5.29,5.29,0,0,1,1.86-1.16,6.86,6.86,0,0,1,2.42-.41,6.41,6.41,0,0,1,2.22.38,5.35,5.35,0,0,1,1.78,1.06,4.93,4.93,0,0,1,1.18-1.59,2,2,0,0,1,1.25-.56,1,1,0,0,1,.77.29.9.9,0,0,1,.26.6.71.71,0,0,1-.17.5.87.87,0,0,1-.41.26,2.73,2.73,0,0,0-.92.38,3.15,3.15,0,0,0-1,1.09,4.63,4.63,0,0,1,.72,1.49,6.3,6.3,0,0,1,.24,1.72v1.3a5.53,5.53,0,0,1-1.67,4,5.55,5.55,0,0,1-1.88,1.19,6.51,6.51,0,0,1-2.39.43m4.78,6.93a2,2,0,0,0-.68-1.62,4.46,4.46,0,0,0-1.66-.84,10.64,10.64,0,0,0-2-.36q-1.08-.09-1.89-.19a6.65,6.65,0,0,0-2.12,1.09,2.33,2.33,0,0,0-.92,1.95,2.61,2.61,0,0,0,1.26,2.25,6.16,6.16,0,0,0,3.48.85,5.78,5.78,0,0,0,3.36-.85,2.66,2.66,0,0,0,1.21-2.29m-1-13.9a4.13,4.13,0,0,0-1-2.8,3.91,3.91,0,0,0-5.5,0,4.13,4.13,0,0,0-1,2.8v1.26a4.25,4.25,0,0,0,1,2.88,3.46,3.46,0,0,0,2.76,1.14,3.39,3.39,0,0,0,2.71-1.13,4.23,4.23,0,0,0,1-2.87Z"/><path class="cls-3" d="M254,241.24a6.16,6.16,0,0,1-2.53-.53,6.58,6.58,0,0,1-2.07-1.42,6.83,6.83,0,0,1-1.38-2,6,6,0,0,1-.51-2.42v-9.11a.76.76,0,0,1,.32-.58,1.2,1.2,0,0,1,.8-.27,1.16,1.16,0,0,1,.77.27.77.77,0,0,1,.32.58v9.11a4.16,4.16,0,0,0,.32,1.61,4.56,4.56,0,0,0,2.27,2.39,4,4,0,0,0,3.33,0,4.42,4.42,0,0,0,1.35-1,4.83,4.83,0,0,0,.92-1.4,4.1,4.1,0,0,0,.34-1.64v-9.15a.7.7,0,0,1,.32-.58,1.32,1.32,0,0,1,.8-.24,1.24,1.24,0,0,1,.78.24.71.71,0,0,1,.31.58v9.15a6,6,0,0,1-.51,2.46,6.46,6.46,0,0,1-1.4,2,7,7,0,0,1-2.07,1.4,6,6,0,0,1-2.51.53"/><path class="cls-3" d="M271.61,226.7A4.19,4.19,0,0,0,270,227a4.39,4.39,0,0,0-1.43,1,5,5,0,0,0-1,1.57,5.25,5.25,0,0,0-.39,2.08v8.43a.79.79,0,0,1-.32.61,1.21,1.21,0,0,1-.8.27,1.14,1.14,0,0,1-.79-.27.81.81,0,0,1-.31-.61V225.68a.7.7,0,0,1,.31-.6,1.31,1.31,0,0,1,.79-.22,1.25,1.25,0,0,1,.75.22.7.7,0,0,1,.31.6v1.67a5.94,5.94,0,0,1,1.74-1.86,4.72,4.72,0,0,1,2.83-.84h1.19a.79.79,0,0,1,.63.31,1.13,1.13,0,0,1,0,1.43.79.79,0,0,1-.63.31Z"/><path class="cls-3" d="M277.55,217.24a1.45,1.45,0,0,1,1,.41,1.33,1.33,0,0,1,.43,1,1.38,1.38,0,0,1-.43,1,1.41,1.41,0,0,1-1,.43,1.51,1.51,0,0,1-1.09-.43,1.35,1.35,0,0,1-.44-1,1.3,1.3,0,0,1,.44-1,1.55,1.55,0,0,1,1.09-.41m0,7.61a1.39,1.39,0,0,1,.8.22.69.69,0,0,1,.32.6v14.44a.8.8,0,0,1-.32.61,1.21,1.21,0,0,1-.8.27,1.14,1.14,0,0,1-.79-.27.81.81,0,0,1-.31-.61V225.68a.7.7,0,0,1,.31-.6,1.31,1.31,0,0,1,.79-.22"/><path class="cls-3" d="M294.42,215a1.23,1.23,0,0,1,.77.22.71.71,0,0,1,.29.6v24.34a.83.83,0,0,1-.29.61,1.07,1.07,0,0,1-.77.27,1.09,1.09,0,0,1-.75-.27.81.81,0,0,1-.31-.61v-1.5a5.14,5.14,0,0,1-1.83,1.84,5.23,5.23,0,0,1-2.85.78,5.12,5.12,0,0,1-2.32-.55,6.52,6.52,0,0,1-1.91-1.43,7,7,0,0,1-1.32-2.07,6.24,6.24,0,0,1-.49-2.44V231a6.49,6.49,0,0,1,1.79-4.52,6.13,6.13,0,0,1,1.95-1.37,5.77,5.77,0,0,1,2.37-.49,4.77,4.77,0,0,1,2.83.8,5.49,5.49,0,0,1,1.67,1.79V215.78a.68.68,0,0,1,.34-.6,1.47,1.47,0,0,1,.82-.22m-9.56,19.8a4.18,4.18,0,0,0,.34,1.66,4.73,4.73,0,0,0,.92,1.42,4.62,4.62,0,0,0,1.35,1,3.63,3.63,0,0,0,1.62.38,3.72,3.72,0,0,0,1.66-.38,5.13,5.13,0,0,0,1.33-.92,4.5,4.5,0,0,0,.87-1.13,2.17,2.17,0,0,0,.31-1V231a4.43,4.43,0,0,0-.36-1.83,4.36,4.36,0,0,0-.94-1.37,3.94,3.94,0,0,0-1.33-.85,4.18,4.18,0,0,0-1.5-.29,3.72,3.72,0,0,0-1.66.38,4.81,4.81,0,0,0-1.35,1,4.56,4.56,0,0,0-.92,1.38,4,4,0,0,0-.34,1.6Z"/><path class="cls-3" d="M304.66,224.65a6.83,6.83,0,0,1,2.89.55,5.18,5.18,0,0,1,1.91,1.47,5.81,5.81,0,0,1,1.06,2.12,9.39,9.39,0,0,1,.32,2.46v8.88a.79.79,0,0,1-.31.63,1.18,1.18,0,0,1-.79.26,1.06,1.06,0,0,1-.73-.26.81.81,0,0,1-.29-.63v-1.5a9.74,9.74,0,0,1-2.15,1.83,5.48,5.48,0,0,1-3,.8,5.86,5.86,0,0,1-1.83-.27,4.08,4.08,0,0,1-1.47-.84,3.9,3.9,0,0,1-1-1.4,5,5,0,0,1-.36-2,4.19,4.19,0,0,1,.58-2.31,4.06,4.06,0,0,1,1.62-1.43,7.92,7.92,0,0,1,2.51-.73,23.49,23.49,0,0,1,3.24-.2h1.74v-.82a6.24,6.24,0,0,0-.22-1.64,4.58,4.58,0,0,0-.7-1.49,3.64,3.64,0,0,0-3.11-1.52,5.92,5.92,0,0,0-1.45.15,6.77,6.77,0,0,0-1,.34q-.43.19-.7.34a1,1,0,0,1-.48.15.71.71,0,0,1-.67-.41,1.65,1.65,0,0,1-.22-.78.84.84,0,0,1,.41-.65,4.13,4.13,0,0,1,1.08-.55,9.74,9.74,0,0,1,1.48-.39,8.9,8.9,0,0,1,1.64-.15m4,8.94h-1.43q-1.19,0-2.27.09a7.46,7.46,0,0,0-1.93.39,3.1,3.1,0,0,0-1.35.89,2.33,2.33,0,0,0-.5,1.57,2.58,2.58,0,0,0,.85,2.17,3.33,3.33,0,0,0,2.12.67,4.1,4.1,0,0,0,1.62-.34,6,6,0,0,0,1.45-.87,4.72,4.72,0,0,0,1-1.16,2.31,2.31,0,0,0,.39-1.21Z"/><path class="cls-3" d="M326.44,215a1.23,1.23,0,0,1,.77.22.71.71,0,0,1,.29.6v24.34a.83.83,0,0,1-.29.61,1.07,1.07,0,0,1-.77.27,1.09,1.09,0,0,1-.75-.27.81.81,0,0,1-.31-.61v-1.5a5.14,5.14,0,0,1-1.83,1.84,5.23,5.23,0,0,1-2.85.78,5.12,5.12,0,0,1-2.32-.55,6.52,6.52,0,0,1-1.91-1.43,7,7,0,0,1-1.32-2.07,6.24,6.24,0,0,1-.49-2.44V231a6.49,6.49,0,0,1,1.79-4.52,6.13,6.13,0,0,1,1.95-1.37,5.77,5.77,0,0,1,2.37-.49,4.77,4.77,0,0,1,2.83.8,5.49,5.49,0,0,1,1.67,1.79V215.78a.68.68,0,0,1,.34-.6,1.47,1.47,0,0,1,.82-.22m-9.56,19.8a4.18,4.18,0,0,0,.34,1.66,4.73,4.73,0,0,0,.92,1.42,4.62,4.62,0,0,0,1.35,1,3.63,3.63,0,0,0,1.62.38,3.72,3.72,0,0,0,1.66-.38,5.13,5.13,0,0,0,1.33-.92,4.5,4.5,0,0,0,.87-1.13,2.17,2.17,0,0,0,.31-1V231a4.43,4.43,0,0,0-.36-1.83,4.36,4.36,0,0,0-.94-1.37,3.94,3.94,0,0,0-1.33-.85,4.18,4.18,0,0,0-1.5-.29,3.72,3.72,0,0,0-1.66.38,4.81,4.81,0,0,0-1.35,1,4.56,4.56,0,0,0-.92,1.38,4,4,0,0,0-.34,1.6Z"/><path class="cls-3" d="M347.57,214.79a1.34,1.34,0,0,1,.78.24.7.7,0,0,1,.34.58v25.26a.74.74,0,0,1-.34.6,1.27,1.27,0,0,1-.78.26,1.25,1.25,0,0,1-.8-.26.75.75,0,0,1-.32-.6V215.61a.7.7,0,0,1,.32-.58,1.32,1.32,0,0,1,.8-.24"/><path class="cls-3" d="M368.08,216.9a.71.71,0,0,1,.32-.65,1.28,1.28,0,0,1,.7-.21h12.08a.73.73,0,0,1,.65.31,1.2,1.2,0,0,1,.2.68,1.32,1.32,0,0,1-.22.77.72.72,0,0,1-.63.32H370.33v9.39h5.39a.7.7,0,0,1,.6.31,1.19,1.19,0,0,1,.22.72,1.14,1.14,0,0,1-.19.63.69.69,0,0,1-.63.29h-5.39v10.69a.69.69,0,0,1-.36.65,1.53,1.53,0,0,1-.77.2,1.49,1.49,0,0,1-.79-.2.7.7,0,0,1-.34-.65Z"/><path class="cls-3" d="M386.14,215a1.39,1.39,0,0,1,.8.22.69.69,0,0,1,.32.6v24.34a.79.79,0,0,1-.32.61,1.21,1.21,0,0,1-.8.27,1.14,1.14,0,0,1-.79-.27.81.81,0,0,1-.31-.61V215.78a.7.7,0,0,1,.31-.6,1.3,1.3,0,0,1,.79-.22"/><path class="cls-3" d="M398,224.65a6.51,6.51,0,0,1,2.42.46,6.23,6.23,0,0,1,3.43,3.24,5.91,5.91,0,0,1,.53,2.51,3.72,3.72,0,0,1-.26,1.54,1.94,1.94,0,0,1-.67.82,2,2,0,0,1-1,.32q-.55.05-1.09.05h-7.72v1.26a4,4,0,0,0,1.47,3.24,6.54,6.54,0,0,0,5.39,1,5.53,5.53,0,0,0,1.09-.46,8.83,8.83,0,0,0,.75-.48,1,1,0,0,1,.58-.22.82.82,0,0,1,.68.38,1.21,1.21,0,0,1,.27.68,1.12,1.12,0,0,1-.36.7,3.58,3.58,0,0,1-1,.73,7.62,7.62,0,0,1-1.6.58,8.69,8.69,0,0,1-2.13.24,9.08,9.08,0,0,1-3-.46,6.8,6.8,0,0,1-2.32-1.31,6,6,0,0,1-1.52-2,6.33,6.33,0,0,1-.55-2.66v-3.82a5.83,5.83,0,0,1,.51-2.41,6.55,6.55,0,0,1,6-3.87m2.53,7.31a2.79,2.79,0,0,0,1.36-.22,1.05,1.05,0,0,0,.34-.94,4.23,4.23,0,0,0-.31-1.59,4.51,4.51,0,0,0-.87-1.38A4.1,4.1,0,0,0,398,226.5a4.21,4.21,0,0,0-1.65.32,4.34,4.34,0,0,0-1.35.89,4.19,4.19,0,0,0-.92,1.33,3.94,3.94,0,0,0-.34,1.62V232Z"/><path class="cls-3" d="M406.72,240.15a1.09,1.09,0,0,1,.14-.48l4.54-6.83L407,226.22a1.81,1.81,0,0,1-.12-.2.53.53,0,0,1-.05-.24,1,1,0,0,1,.46-.77,1.49,1.49,0,0,1,.9-.36,1.06,1.06,0,0,1,.36.07.67.67,0,0,1,.32.27l4,6.25,4.06-6.25a.64.64,0,0,1,.29-.26.87.87,0,0,1,.36-.08,1.56,1.56,0,0,1,.89.34,1,1,0,0,1,.48.78.92.92,0,0,1-.17.44l-4.47,6.62,4.57,6.83a.84.84,0,0,1,.14.48,1,1,0,0,1-.43.73,1.39,1.39,0,0,1-.9.36.7.7,0,0,1-.65-.34l-4.17-6.38-4.13,6.38a.82.82,0,0,1-.72.34,1.45,1.45,0,0,1-.84-.34,1,1,0,0,1-.46-.75"/><path class="cls-3" d="M423.38,217.24a1.45,1.45,0,0,1,1,.41,1.33,1.33,0,0,1,.43,1,1.38,1.38,0,0,1-.43,1,1.41,1.41,0,0,1-1,.43,1.51,1.51,0,0,1-1.09-.43,1.35,1.35,0,0,1-.44-1,1.3,1.3,0,0,1,.44-1,1.55,1.55,0,0,1,1.09-.41m0,7.61a1.39,1.39,0,0,1,.8.22.69.69,0,0,1,.32.6v14.44a.8.8,0,0,1-.32.61,1.21,1.21,0,0,1-.8.27,1.14,1.14,0,0,1-.79-.27.81.81,0,0,1-.31-.61V225.68a.7.7,0,0,1,.31-.6,1.31,1.31,0,0,1,.79-.22"/><path class="cls-3" d="M430.18,215a1.39,1.39,0,0,1,.8.22.69.69,0,0,1,.32.6v11.47a5.89,5.89,0,0,1,1.71-1.79,4.77,4.77,0,0,1,2.83-.8,5.76,5.76,0,0,1,2.37.49,6.14,6.14,0,0,1,1.95,1.37A6.49,6.49,0,0,1,442,231v3.72a6.26,6.26,0,0,1-.49,2.44,6.81,6.81,0,0,1-3.26,3.5,5.06,5.06,0,0,1-2.29.55,5.31,5.31,0,0,1-2.87-.78,4.81,4.81,0,0,1-1.81-1.84v1.5a.81.81,0,0,1-.31.61,1.09,1.09,0,0,1-.75.27,1.14,1.14,0,0,1-.79-.27.81.81,0,0,1-.31-.61V215.78a.7.7,0,0,1,.31-.6,1.31,1.31,0,0,1,.79-.22M439.74,231a4,4,0,0,0-.34-1.6,4.6,4.6,0,0,0-.92-1.38,4.84,4.84,0,0,0-1.35-1,3.73,3.73,0,0,0-1.66-.38,4.12,4.12,0,0,0-2.85,1.14,4.18,4.18,0,0,0-1,1.36,4.42,4.42,0,0,0-.36,1.83v4.78a2.09,2.09,0,0,0,.32,1,4.87,4.87,0,0,0,.89,1.13,5.13,5.13,0,0,0,1.33.92,3.71,3.71,0,0,0,1.66.38,3.64,3.64,0,0,0,1.62-.38,4.65,4.65,0,0,0,1.35-1,4.74,4.74,0,0,0,.92-1.42,4.19,4.19,0,0,0,.34-1.65Z"/><path class="cls-3" d="M447,217.24a1.45,1.45,0,0,1,1,.41,1.33,1.33,0,0,1,.43,1,1.38,1.38,0,0,1-.43,1,1.41,1.41,0,0,1-1,.43,1.51,1.51,0,0,1-1.09-.43,1.35,1.35,0,0,1-.44-1,1.3,1.3,0,0,1,.44-1,1.55,1.55,0,0,1,1.09-.41m0,7.61a1.39,1.39,0,0,1,.8.22.69.69,0,0,1,.32.6v14.44a.8.8,0,0,1-.32.61,1.21,1.21,0,0,1-.8.27,1.14,1.14,0,0,1-.79-.27.81.81,0,0,1-.31-.61V225.68a.7.7,0,0,1,.31-.6,1.31,1.31,0,0,1,.79-.22"/><path class="cls-3" d="M454,215a1.39,1.39,0,0,1,.8.22.69.69,0,0,1,.32.6v24.34a.79.79,0,0,1-.32.61,1.21,1.21,0,0,1-.8.27,1.14,1.14,0,0,1-.79-.27.81.81,0,0,1-.31-.61V215.78a.7.7,0,0,1,.31-.6A1.3,1.3,0,0,1,454,215"/><path class="cls-3" d="M461.11,217.24a1.45,1.45,0,0,1,1,.41,1.33,1.33,0,0,1,.43,1,1.38,1.38,0,0,1-.43,1,1.41,1.41,0,0,1-1,.43,1.51,1.51,0,0,1-1.09-.43,1.35,1.35,0,0,1-.44-1,1.3,1.3,0,0,1,.44-1,1.55,1.55,0,0,1,1.09-.41m0,7.61a1.39,1.39,0,0,1,.8.22.69.69,0,0,1,.32.6v14.44a.8.8,0,0,1-.32.61,1.21,1.21,0,0,1-.8.27,1.14,1.14,0,0,1-.79-.27.81.81,0,0,1-.31-.61V225.68a.7.7,0,0,1,.31-.6,1.31,1.31,0,0,1,.79-.22"/><path class="cls-3" d="M478,215a1.23,1.23,0,0,1,.77.22.71.71,0,0,1,.29.6v24.34a.83.83,0,0,1-.29.61,1.07,1.07,0,0,1-.77.27,1.09,1.09,0,0,1-.75-.27.81.81,0,0,1-.31-.61v-1.5a5.14,5.14,0,0,1-1.83,1.84,5.23,5.23,0,0,1-2.85.78,5.12,5.12,0,0,1-2.32-.55,6.52,6.52,0,0,1-1.91-1.43,7,7,0,0,1-1.32-2.07,6.24,6.24,0,0,1-.49-2.44V231a6.49,6.49,0,0,1,1.79-4.52,6.13,6.13,0,0,1,1.95-1.37,5.77,5.77,0,0,1,2.37-.49,4.77,4.77,0,0,1,2.83.8,5.49,5.49,0,0,1,1.67,1.79V215.78a.68.68,0,0,1,.34-.6A1.47,1.47,0,0,1,478,215m-9.56,19.8a4.18,4.18,0,0,0,.34,1.66,4.73,4.73,0,0,0,.92,1.42,4.62,4.62,0,0,0,1.35,1,3.63,3.63,0,0,0,1.62.38,3.72,3.72,0,0,0,1.66-.38,5.13,5.13,0,0,0,1.33-.92,4.5,4.5,0,0,0,.87-1.13,2.17,2.17,0,0,0,.31-1V231a4.43,4.43,0,0,0-.36-1.83,4.36,4.36,0,0,0-.94-1.37,3.94,3.94,0,0,0-1.33-.85,4.18,4.18,0,0,0-1.5-.29,3.72,3.72,0,0,0-1.66.38,4.81,4.81,0,0,0-1.35,1,4.56,4.56,0,0,0-.92,1.38,4,4,0,0,0-.34,1.6Z"/><path class="cls-3" d="M488.21,224.65a6.83,6.83,0,0,1,2.89.55,5.18,5.18,0,0,1,1.91,1.47,5.81,5.81,0,0,1,1.06,2.12,9.39,9.39,0,0,1,.32,2.46v8.88a.79.79,0,0,1-.31.63,1.18,1.18,0,0,1-.79.26,1.06,1.06,0,0,1-.73-.26.81.81,0,0,1-.29-.63v-1.5a9.74,9.74,0,0,1-2.15,1.83,5.48,5.48,0,0,1-3,.8,5.86,5.86,0,0,1-1.83-.27,4.08,4.08,0,0,1-1.47-.84,3.9,3.9,0,0,1-1-1.4,5,5,0,0,1-.36-2,4.19,4.19,0,0,1,.58-2.31,4.06,4.06,0,0,1,1.62-1.43,7.92,7.92,0,0,1,2.51-.73,23.49,23.49,0,0,1,3.24-.2h1.74v-.82a6.24,6.24,0,0,0-.22-1.64,4.58,4.58,0,0,0-.7-1.49,3.64,3.64,0,0,0-3.11-1.52,5.92,5.92,0,0,0-1.45.15,6.77,6.77,0,0,0-1,.34q-.43.19-.7.34a1,1,0,0,1-.48.15.71.71,0,0,1-.67-.41,1.65,1.65,0,0,1-.22-.78.84.84,0,0,1,.41-.65,4.13,4.13,0,0,1,1.08-.55,9.74,9.74,0,0,1,1.48-.39,8.9,8.9,0,0,1,1.64-.15m4,8.94h-1.43q-1.19,0-2.27.09a7.46,7.46,0,0,0-1.93.39,3.1,3.1,0,0,0-1.35.89,2.33,2.33,0,0,0-.5,1.57,2.58,2.58,0,0,0,.85,2.17,3.33,3.33,0,0,0,2.12.67,4.1,4.1,0,0,0,1.62-.34,6,6,0,0,0,1.45-.87,4.72,4.72,0,0,0,1-1.16,2.31,2.31,0,0,0,.39-1.21Z"/><path class="cls-3" d="M510,215a1.23,1.23,0,0,1,.77.22.71.71,0,0,1,.29.6v24.34a.83.83,0,0,1-.29.61,1.07,1.07,0,0,1-.77.27,1.09,1.09,0,0,1-.75-.27.81.81,0,0,1-.31-.61v-1.5a5.14,5.14,0,0,1-1.83,1.84,5.23,5.23,0,0,1-2.85.78,5.12,5.12,0,0,1-2.32-.55,6.52,6.52,0,0,1-1.91-1.43,7,7,0,0,1-1.32-2.07,6.24,6.24,0,0,1-.49-2.44V231a6.49,6.49,0,0,1,1.79-4.52,6.13,6.13,0,0,1,1.95-1.37,5.77,5.77,0,0,1,2.37-.49,4.77,4.77,0,0,1,2.83.8,5.49,5.49,0,0,1,1.67,1.79V215.78a.68.68,0,0,1,.34-.6A1.47,1.47,0,0,1,510,215m-9.56,19.8a4.18,4.18,0,0,0,.34,1.66,4.73,4.73,0,0,0,.92,1.42,4.62,4.62,0,0,0,1.35,1,3.63,3.63,0,0,0,1.62.38,3.72,3.72,0,0,0,1.66-.38,5.13,5.13,0,0,0,1.33-.92,4.5,4.5,0,0,0,.87-1.13,2.17,2.17,0,0,0,.31-1V231a4.43,4.43,0,0,0-.36-1.83,4.36,4.36,0,0,0-.94-1.37,3.94,3.94,0,0,0-1.33-.85,4.18,4.18,0,0,0-1.5-.29,3.72,3.72,0,0,0-1.66.38,4.81,4.81,0,0,0-1.35,1,4.56,4.56,0,0,0-.92,1.38,4,4,0,0,0-.34,1.6Z"/></g></svg>