<svg xmlns="http://www.w3.org/2000/svg" width="381" height="84" viewBox="0 0 381 84">
    <g fill="#FFF">
        <path d="M0 82.977V53.002h8.31c2.3-.04 4.568.539 6.573 1.675 1.933 1.129 3.498 2.8 4.505 4.81 1.105 2.206 1.657 4.65 1.609 7.122v2.778c.05 2.472-.503 4.919-1.609 7.125-1.016 2.012-2.595 3.679-4.541 4.794-2.056 1.154-4.378 1.737-6.73 1.691L0 82.977zm2.51-27.834v25.693h5.631c3.132 0 5.645-1.048 7.538-3.143 1.894-2.096 2.832-4.935 2.816-8.517v-2.628c0-3.448-.932-6.208-2.796-8.282-1.863-2.074-4.321-3.117-7.373-3.13l-5.816.007zM48.973 68.615L35.446 68.615 35.446 80.857 51 80.857 51 83 33 83 33 53 50.898 53 50.898 55.143 35.446 55.143 35.446 66.476 48.973 66.476zM79.495 76.15c.06-1.524-.573-2.99-1.712-3.966-1.138-.972-3.221-1.897-6.25-2.776-3.029-.878-5.24-1.83-6.634-2.856-1.983-1.467-2.976-3.387-2.979-5.76-.036-2.231 1.003-4.337 2.773-5.623 1.848-1.445 4.205-2.167 7.07-2.167 1.802-.031 3.587.366 5.216 1.159 1.46.71 2.696 1.83 3.565 3.232.844 1.383 1.284 2.987 1.268 4.62h-2.496c.073-1.891-.68-3.716-2.051-4.975-1.368-1.252-3.203-1.879-5.506-1.881-2.242 0-4.026.515-5.351 1.546-1.27.923-2.012 2.436-1.98 4.037-.03 1.475.636 2.874 1.786 3.755 1.196.968 3.106 1.823 5.731 2.563 2.625.74 4.616 1.507 5.973 2.301 1.231.678 2.28 1.66 3.054 2.857.703 1.175 1.06 2.535 1.026 3.914.053 2.261-.985 4.402-2.773 5.714C77.377 83.281 74.947 84 71.937 84c-1.949.023-3.882-.364-5.68-1.139-1.582-.644-2.946-1.754-3.921-3.191-.898-1.392-1.363-3.031-1.335-4.702h2.472c-.074 1.966.79 3.845 2.313 5.032 1.54 1.233 3.59 1.848 6.151 1.845 2.282 0 4.108-.518 5.49-1.55 1.329-.929 2.108-2.49 2.068-4.143zM96.369 70.778V83H94V53h9.559c2.915 0 5.218.796 6.909 2.387 1.69 1.59 2.535 3.783 2.532 6.575 0 2.817-.812 4.99-2.437 6.519-1.625 1.529-3.979 2.295-7.061 2.297h-7.133zm0-2.139h7.19c2.3 0 4.054-.586 5.261-1.757 1.208-1.172 1.811-2.802 1.811-4.891 0-2.076-.6-3.73-1.803-4.96-1.202-1.232-2.908-1.86-5.117-1.888h-7.342V68.64zM140.977 68.615L127.446 68.615 127.446 80.857 143 80.857 143 83 125 83 125 53 142.894 53 142.894 55.143 127.446 55.143 127.446 66.476 140.977 66.476zM177 79.998c-.859 1.257-2.208 2.238-4.047 2.943-1.976.73-4.064 1.088-6.163 1.057-2.161.04-4.29-.55-6.139-1.698-1.81-1.155-3.253-2.826-4.154-4.808-1.018-2.23-1.53-4.666-1.495-7.127v-3.813c0-4.183 1.03-7.488 3.089-9.915 2.06-2.427 4.824-3.64 8.293-3.637 3.027 0 5.463.79 7.308 2.372 1.845 1.58 2.94 3.758 3.288 6.53h-2.469c-.366-2.217-1.244-3.898-2.636-5.04-1.391-1.143-3.211-1.715-5.459-1.715-2.743 0-4.917 1.003-6.52 3.008-1.604 2.006-2.399 4.833-2.386 8.483V70.2c-.054 2.088.32 4.165 1.098 6.095.68 1.658 1.818 3.076 3.272 4.082 1.452.977 3.158 1.482 4.894 1.449 1.885.05 3.76-.302 5.507-1.033.851-.344 1.615-.885 2.23-1.58v-7.792h-7.884v-2.156H177v10.732zM206.264 74.574H192.72L189.644 83H187l11.303-30h2.394L212 83h-2.624l-3.112-8.426zm-12.765-2.144h11.965l-5.982-16.341-5.983 16.341zM233.155 70.49h-8.628V83H222V53h9.64c3.171 0 5.645.775 7.424 2.326 1.778 1.55 2.668 3.715 2.67 6.494.029 1.836-.56 3.628-1.67 5.082-1.131 1.479-2.705 2.548-4.487 3.048L243 82.724v.268h-2.671l-7.174-12.502zm-8.628-2.143h7.688c2.11 0 3.802-.605 5.077-1.814 1.28-1.216 1.978-2.93 1.916-4.705 0-2.118-.67-3.762-2.008-4.931-1.34-1.17-3.214-1.754-5.624-1.754h-7.05v13.204zM270.973 68.615L257.446 68.615 257.446 80.857 273 80.857 273 83 255 83 255 53 272.898 53 272.898 55.143 257.442 55.143 257.442 66.476 270.969 66.476zM289.255 53L299.969 79.477 310.729 53 314 53 314 83 311.547 83 311.547 69.934 311.747 56.539 300.928 82.996 299.033 82.996 288.257 56.641 288.453 69.849 288.453 82.996 286 82.996 286 53zM378.491 76.163c.062-1.524-.57-2.99-1.707-3.967-1.14-.971-3.225-1.896-6.253-2.775-3.028-.88-5.24-1.831-6.633-2.857-1.983-1.475-2.974-3.399-2.974-5.771-.037-2.232 1-4.339 2.772-5.624 1.848-1.445 4.203-2.167 7.065-2.167 1.8-.031 3.583.365 5.211 1.159 1.46.709 2.697 1.83 3.564 3.232.847 1.382 1.287 2.986 1.268 4.62h-2.491c.07-1.89-.682-3.715-2.052-4.975-1.367-1.252-3.203-1.879-5.508-1.881-2.239 0-4.021.515-5.346 1.546-1.27.924-2.011 2.436-1.98 4.037-.028 1.476.64 2.875 1.79 3.755 1.193.968 3.103 1.823 5.73 2.563 2.627.74 4.616 1.507 5.968 2.301 1.231.68 2.282 1.66 3.057 2.857.703 1.175 1.06 2.535 1.026 3.914.051 2.26-.987 4.4-2.772 5.714-1.848 1.437-4.277 2.155-7.287 2.155-1.948.023-3.881-.364-5.679-1.139-1.582-.644-2.946-1.754-3.92-3.191-.899-1.391-1.366-3.031-1.339-4.702h2.475c-.075 1.966.787 3.845 2.309 5.032 1.544 1.233 3.596 1.848 6.154 1.845 2.278 0 4.108-.517 5.489-1.55 1.322-.928 2.099-2.483 2.063-4.131zM217.002 13.005c-1.762-.071-3.437.727-4.426 2.11-1.037 1.406-1.562 3.467-1.576 6.182v1.275c0 2.674.52 4.747 1.56 6.218 1.008 1.37 2.655 2.194 4.42 2.21 1.764.016 3.428-.777 4.464-2.13 1.024-1.416 1.542-3.485 1.556-6.205v-1.279c0-2.738-.519-4.822-1.556-6.252-.985-1.396-2.67-2.204-4.442-2.13z"/>
        <path d="M312.253 0H74.952C70.562 0 67 3.538 67 7.905V34.3C67 39.106 70.92 43 75.75 43h236.503c4.83 0 8.747-3.895 8.747-8.7V8.7c0-4.805-3.916-8.7-8.747-8.7zm-211.96 27.123c.033 1.587-.362 3.154-1.142 4.539-.755 1.303-1.876 2.36-3.225 3.04-1.457.727-3.07 1.092-4.7 1.065-2.858 0-5.086-.722-6.684-2.166-1.599-1.444-2.398-3.492-2.398-6.144h5.594c0 1.325.279 2.297.836 2.917.556.62 1.437.935 2.64.946.972.04 1.909-.363 2.546-1.093.632-.728.947-1.763.947-3.104V8.497h5.574l.012 18.626zm31.875-.894c0 2.944-.925 5.273-2.777 6.987-1.851 1.714-4.382 2.57-7.592 2.567-3.162 0-5.67-.832-7.524-2.496-1.854-1.664-2.803-3.949-2.845-6.855V8.497h5.574v17.756c0 1.765.425 3.05 1.275 3.855.85.805 2.023 1.203 3.52 1.192 3.133 0 4.724-1.638 4.775-4.916V8.497h5.594v17.732zm33.194 9.184h-5.574l-10.853-17.716V35.4h-5.574V8.497h5.574l10.869 17.732V8.497h5.558v26.916zm31.315-22.418h-8.287v22.406h-5.574V12.983h-8.176V8.497h22.037v4.498zm31.503 9.574c.052 2.399-.43 4.779-1.41 6.97-.861 1.903-2.268 3.51-4.044 4.619-3.718 2.154-8.313 2.154-12.031 0-1.785-1.102-3.206-2.699-4.088-4.595-1.001-2.149-1.503-4.495-1.467-6.863v-1.323c-.05-2.41.441-4.799 1.439-6.995.87-1.911 2.285-3.526 4.072-4.641 3.713-2.157 8.306-2.157 12.02 0 1.785 1.117 3.2 2.73 4.071 4.641.996 2.19 1.487 4.573 1.438 6.975v1.212zm17.279-4.685c1.217.737 2.534 1.298 3.911 1.665 3.173.946 5.483 2.122 6.93 3.529 1.435 1.367 2.226 3.273 2.177 5.25.078 2.143-.918 4.185-2.657 5.452-1.774 1.325-4.16 1.987-7.157 1.987-1.955.026-3.893-.361-5.686-1.137-1.574-.648-2.93-1.727-3.912-3.111-.908-1.357-1.378-2.957-1.346-4.586h5.594c0 2.975 1.783 4.463 5.35 4.463 1.332 0 2.367-.265 3.105-.795.731-.512 1.151-1.357 1.115-2.246.051-.937-.366-1.84-1.115-2.412-.743-.559-2.075-1.15-3.996-1.772-1.583-.484-3.12-1.104-4.595-1.852-3.074-1.648-4.61-3.872-4.607-6.673-.02-1.395.414-2.759 1.234-3.89.91-1.203 2.138-2.128 3.549-2.671 1.65-.661 3.416-.988 5.194-.962 1.777-.03 3.54.326 5.163 1.045 1.433.63 2.655 1.653 3.524 2.95.841 1.284 1.278 2.79 1.255 4.323h-5.594c.063-1.084-.367-2.139-1.171-2.873-.778-.684-1.874-1.026-3.289-1.026-1.36 0-2.42.286-3.176.859-.73.523-1.153 1.37-1.131 2.265.004.874.443 1.606 1.33 2.218zm54.974-7.663c-.049 1.057-.522 2.049-1.314 2.755l-.04.031-.052.028-5.782 4.817 3.628 15.078c.047.209-.021.427-.18.572l-3.392 3c-.252.219-.634.194-.855-.055-.052-.052-6.194-12.773-6.194-12.773l-6.713 5.607 1.175 4.82c.053.219-.02.448-.188.597l-2.617 2.317c-.253.22-.637.194-.86-.056-.051-.055-3.336-7.002-3.336-7.002l-6.505-4.006c-.136-.088-.23-.226-.263-.383-.032-.158 0-.322.091-.456.032-.047 2.725-2.44 2.725-2.44.172-.15.414-.194.628-.11l4.63 1.68 6.394-6.013-11.907-7.44c-.28-.185-.356-.559-.172-.838.036-.06 3.5-3.135 3.5-3.135.17-.153.414-.196.627-.112l14.593 5.338 5.49-5.167.084-.067c.798-.7 1.845-1.05 2.905-.974 1.065.059 2.066.521 2.798 1.292l.167.186c.67.818 1.005 1.857.935 2.91zM352.581 55.96c-1.6-1.889-3.923-2.965-6.36-2.947-3.474 0-5.675 2.138-6.91 3.93-.301.439-.576.897-.823 1.372-.242-.479-.513-.941-.811-1.385-1.23-1.792-3.435-3.93-6.91-3.93-2.436-.017-4.759 1.06-6.36 2.949-1.584 1.902-2.439 4.332-2.406 6.837 0 2.826 1.072 5.452 3.372 8.27 2.058 2.517 5.018 5.11 8.445 8.116 1.279 1.12 2.596 2.276 4.001 3.543l.044.04c.366.326.909.326 1.274 0l.044-.04c1.405-1.267 2.727-2.423 4.001-3.543 3.427-3.005 6.388-5.599 8.446-8.116 2.299-2.818 3.371-5.444 3.371-8.27.027-2.502-.832-4.928-2.418-6.825zm-10.665 21.71c-1.1.965-2.233 1.958-3.428 3.03-1.187-1.072-2.327-2.065-3.427-3.03-6.708-5.88-11.14-9.774-11.14-14.872-.033-2.02.652-3.984 1.927-5.522 1.235-1.457 3.028-2.287 4.907-2.272 2.652 0 4.353 1.682 5.335 3.09.633.93 1.131 1.95 1.48 3.026.13.41.5.686.918.686.418 0 .789-.277.918-.686.35-1.076.848-2.096 1.48-3.025.974-1.41 2.688-3.091 5.335-3.091 1.88-.015 3.672.815 4.908 2.272 1.274 1.538 1.96 3.501 1.927 5.522 0 5.127-4.432 8.991-11.14 14.872z"/>
    </g>
</svg>
