<?xml version="1.0" encoding="UTF-8"?>
<svg width="214px" height="209px" viewBox="0 0 214 209" version="1.1" xmlns="http://www.w3.org/2000/svg" xmlns:xlink="http://www.w3.org/1999/xlink">
    <!-- Generator: Sketch 61.2 (89653) - https://sketch.com -->
    <title>logo_vivafan</title>
    <desc>Created with Sketch.</desc>
    <defs>
        <polygon id="path-1" points="0 0.575785144 38.7522938 0.575785144 38.7522938 39.2818508 0 39.2818508"/>
        <polygon id="path-3" points="0.353531293 0.10208288 27.3514752 0.10208288 27.3514752 41.2075472 0.353531293 41.2075472"/>
        <polygon id="path-5" points="0.760699256 0.12248392 32.2839767 0.12248392 32.2839767 40.3331341 0.760699256 40.3331341"/>
    </defs>
    <g id="Page-1" stroke="none" stroke-width="1" fill="none" fill-rule="evenodd">
        <g id="LP_EXTENSION-VIVAFAN" transform="translate(-576.000000, -198.000000)">
            <g id="logo_vivafan" transform="translate(576.000000, 198.000000)">
                <path d="M106.892409,30.7828839 C105.904135,29.0623546 105.152668,27.4697921 104.019152,26.1089744 C102.854063,24.7083622 101.813691,23.1821239 100.51599,21.9141602 C86.0439344,7.78163132 62.6087401,9.31411182 50.2079552,25.2467591 C42.5377817,35.1025438 42.0223321,46.2926165 44.6769368,57.8400599 C46.7205798,66.7345329 51.4385614,74.4250257 57.0524623,81.5178198 C70.578869,98.6076303 87.6139638,111.719546 106.020959,123.245922 C106.978448,123.845961 107.545206,123.496393 108.285622,123.035245 C115.11671,118.776447 121.770982,114.274981 128.134772,109.348259 C140.024054,100.144012 151.04978,90.0861336 159.734276,77.783374 C166.875581,67.666974 171.447532,56.708646 170.499515,43.9829717 C169.485193,30.3693326 162.916171,20.415232 150.299103,15.0765194 C137.974096,9.86187216 126.170854,11.5574323 115.584798,19.9712496 C111.952971,22.8575252 109.309417,26.550616 106.892409,30.7828839 M107.055805,0.504689829 C133.121134,0.504689829 159.186463,0.510151827 185.251792,0.500004051 C190.751236,0.49766726 195.972827,1.50579598 200.547146,4.69248149 C207.565311,9.58018913 210.935862,16.4006637 210.956385,24.803557 C211.006115,45.4405448 210.973751,66.0775327 210.972172,86.7145205 C210.972172,92.6852643 211.052687,98.6575686 210.939809,104.625971 C210.726683,115.990048 202.398186,125.579755 191.096974,127.508621 C189.10385,127.848825 187.049156,127.950262 185.02209,127.955724 C170.184562,127.991617 155.345456,128.063404 140.507929,127.922952 C135.84757,127.879256 132.19522,129.409396 128.912287,132.624952 C124.241667,137.200545 119.992563,142.141312 115.565064,146.927583 C113.968197,148.654355 112.332651,150.334309 110.529762,151.851964 C107.850687,154.10933 106.051744,154.015695 103.431871,151.767693 C99.2474945,148.1776 95.7569616,143.950794 92.1069789,139.876144 C89.4018554,136.85722 86.4757122,134.066139 83.5629881,131.259453 C80.9786361,128.768001 77.7825331,127.935437 74.1996456,127.949482 C59.0329568,128.010344 43.866268,128.001761 28.6995792,127.958065 C24.4125861,127.9448 20.1958456,127.444637 16.3153708,125.37376 C7.68376151,120.766955 3.20337609,113.575065 3.08339395,103.947903 C2.92315466,91.0349607 3.04313679,78.119677 3.04313679,65.2043933 C3.04313679,51.7062365 3.01156254,38.2080796 3.05260906,24.7091424 C3.08891945,12.642029 10.8317138,3.31605807 22.7888805,0.980663913 C24.8301555,0.581938082 26.9645745,0.525757534 29.0571576,0.523416678 C55.0561806,0.494546119 81.055993,0.504689829 107.055805,0.504689829" id="Fill-1" fill="#FFFFFF"/>
                <path d="M113.60478,194.85646 C113.60478,194.019827 113.516504,193.172318 113.62431,192.350445 C113.807112,190.9747 113.317296,190.438696 111.895502,190.313628 C109.680002,190.118647 107.490283,190.195552 105.326343,190.583961 C103.167871,190.97237 101.803105,192.614563 101.764826,194.579913 C101.721859,196.788406 102.721021,198.00568 105.03964,198.736666 C106.501276,199.196542 107.981661,199.086234 109.463608,199.058268 C113.60478,198.98214 113.60478,198.974372 113.60478,194.85646 L113.60478,194.85646 Z M123.982317,192.522898 C123.982317,196.39689 123.958881,200.270881 123.999504,204.144096 C124.008878,205.086376 123.895604,205.684526 122.775354,205.89116 C116.117919,207.116202 109.447984,208.007989 102.656962,207.17524 C101.2297,207.000456 99.845403,206.67963 98.5087599,206.173145 C94.4339906,204.628054 91.7825783,201.862582 91.1888619,197.447148 C90.5756154,192.891887 91.3216669,188.717267 95.4292468,185.955679 C99.1102883,183.480737 103.394421,182.963376 107.725425,183.004547 C109.266744,183.01853 110.850249,182.939294 112.365788,183.407716 C113.399323,183.726988 113.555564,183.187876 113.573532,182.316286 C113.627435,179.727152 112.024401,177.507783 109.437047,176.939152 C105.411494,176.053579 101.42422,176.658721 97.4986608,177.587018 C96.2331075,177.886093 95.805788,177.698103 95.6675145,176.393049 C95.464401,174.471978 95.0831726,172.568774 94.7433481,170.664016 C94.5886694,169.797087 94.6597591,169.258752 95.7315734,169.009394 C101.595304,167.642971 107.505907,166.881689 113.459476,168.139357 C120.245029,169.573363 123.637024,173.786824 123.876855,180.904031 C124.007316,184.773362 123.900291,188.649684 123.900291,192.522898 L123.982317,192.522898 Z" id="Fill-3" fill="#FFFFFF"/>
                <path d="M52,167.558236 C55.5886302,167.558236 59.0843483,167.612199 62.5760959,167.528436 C63.7617177,167.49944 63.7950707,168.283114 63.994395,169.021684 C66.0106667,176.507258 68.3414102,183.893765 70.8571837,191.219865 C71.0858904,191.885947 71.1438612,192.669621 71.8577755,193.259994 C74.6157557,185.428895 77.1077056,177.618737 79.2065659,169.687767 C79.6353909,168.065651 80.2516284,167.398763 81.9891639,167.512327 C84.6177025,167.684687 87.2660941,167.584009 89.9049563,167.544544 C90.865842,167.529241 91.1993726,167.741872 90.8856951,168.797777 C87.0572405,181.68933 82.4179889,194.261131 76.5669096,206.359345 C76.2691144,206.976296 75.9339956,207.337125 75.2327873,207.230809 C75.1033456,207.211479 74.9691393,207.230004 74.8365212,207.228393 C72.2651592,207.206646 69.2459134,208.022537 67.2463181,206.92636 C65.2387817,205.826157 64.7964566,202.540848 63.7220117,200.190633 C59.0478188,189.978713 55.4202767,179.370526 52.1985301,168.61092 C52.1072063,168.306471 52.0786179,167.981887 52,167.558236" id="Fill-5" fill="#FFFFFF"/>
                <g id="Group-9" transform="translate(0.000000, 167.500000)">
                    <mask id="mask-2" fill="white">
                        <use xlink:href="#path-1"/>
                    </mask>
                    <g id="Clip-8"/>
                    <path d="M19.4168265,25.9020392 C21.6557449,20.1451765 23.2921531,14.8024314 24.9611939,9.47223529 C25.7602959,6.92086275 26.4567245,4.33733333 27.1396224,1.75380392 C27.3513367,0.954588235 27.641051,0.569490196 28.5802347,0.589098039 C31.6230306,0.654196078 34.6682143,0.642431373 37.7110102,0.596941176 C38.7377449,0.581254902 38.9231939,0.835372549 38.6207449,1.82517647 C34.7955612,14.3208627 30.1060102,26.484 24.3555,38.2479216 C23.9742551,39.0275294 23.507051,39.2753725 22.6808878,39.2581176 C20.6290102,39.216549 18.5723571,39.1616471 16.5276429,39.2738039 C15.1491122,39.3498824 14.4518878,38.8926275 13.8262959,37.6408627 C8.52468367,27.0322353 4.43764286,15.9655686 0.788357143,4.72556863 C-0.548785714,0.608705882 -0.563112245,0.612627451 3.77703061,0.612627451 C5.76284694,0.612627451 7.75264286,0.69654902 9.73129592,0.582823529 C10.9864592,0.509882353 11.4234184,1.00243137 11.7131327,2.12792157 C13.5867245,9.39380392 15.8821531,16.5326275 18.5015204,23.5710588 C18.7235816,24.1687059 18.9671327,24.7585098 19.4168265,25.9020392" id="Fill-7" fill="#FFFFFF" mask="url(#mask-2)"/>
                </g>
                <g id="Group-12" transform="translate(150.000000, 167.500000)">
                    <mask id="mask-4" fill="white">
                        <use xlink:href="#path-3"/>
                    </mask>
                    <g id="Clip-11"/>
                    <path d="M22.1721684,29.1712189 C22.1721684,27.2606151 22.1589053,25.3492189 22.1788,23.4386151 C22.1861684,22.7095585 22.1382737,22.1754453 21.2326947,22.1857472 C17.3753263,22.2301245 13.5069053,22.0763887 9.80058947,23.583634 C7.21648421,24.6344264 5.58806316,26.8184264 5.5468,29.4081623 C5.50185263,32.1445019 6.86058947,34.2151811 9.6068,35.3151057 C13.4413263,36.8508792 17.3944842,36.7985774 21.3822737,36.1527283 C22.1817474,36.022766 22.1751158,35.518766 22.1736421,34.9038226 C22.1692211,32.9932189 22.1721684,31.0818226 22.1721684,29.1712189 M3.8668,8.18231321 C3.84837895,2.25476604 2.65248421,3.45691698 8.11764211,1.34740755 C11.7613263,-0.0584037736 15.5428,-0.231950943 19.3493263,0.615181132 C23.8691158,1.62080377 27.1112211,5.36038868 27.2165895,10.4503132 C27.4111158,19.8709925 27.3109053,29.2988038 27.3514752,38.7226528 C27.3543789,39.4120868 27.2092211,39.8415962 26.5217474,39.9802755 C19.5291158,41.3868792 12.5497474,42.2078604 5.79364211,38.8843132 C2.15806316,37.0957472 0.356484211,33.9695208 0.353531293,29.6260868 C0.349852632,25.2945396 2.18090526,22.1873321 5.71185263,20.265634 C10.2228,17.8106151 15.1309053,17.5071057 20.0463789,17.635483 C21.8560632,17.6830302 22.4654316,17.1409925 22.1905895,15.2581245 C22.0785895,14.485483 22.1788,13.678766 22.1662737,12.8886906 C22.0918526,8.28691698 19.8540632,5.69163396 15.5369053,5.36831321 C12.1091158,5.11235094 8.84932632,5.9412566 5.72953684,7.46276604 C5.13195789,7.75359623 4.59553684,8.26552075 3.8668,8.18231321" id="Fill-10" fill="#FFFFFF" mask="url(#mask-4)"/>
                </g>
                <g id="Group-15" transform="translate(181.000000, 167.500000)">
                    <mask id="mask-6" fill="white">
                        <use xlink:href="#path-5"/>
                    </mask>
                    <g id="Clip-14"/>
                    <path d="M0.771202326,21.4865231 C0.771202326,15.8474462 0.765062791,10.2083692 0.778109302,4.57008077 C0.779644186,3.84075385 0.554016279,3.11931154 1.6836907,2.77002308 C8.14938837,0.77285 14.6642023,-0.611688462 21.4545279,0.541830769 C28.6792256,1.76867692 32.2532023,6.1131 32.2547372,13.6310808 C32.2562721,21.8925808 32.2263419,30.1548692 32.2842058,38.4155808 C32.2931093,39.7859269 32.1027837,40.3756962 30.5548535,40.3307538 C26.9709,40.2274654 26.9762721,40.3228692 26.9662953,36.6084269 C26.944807,29.1346 27.0568535,21.6568308 26.8419698,14.1893115 C26.6823419,8.66771538 23.5143419,5.66288846 18.0908302,5.31281154 C14.6265977,5.08967692 11.2260628,5.55644615 7.83166744,6.24635 C6.53392326,6.50969615 6.10645814,7.01194615 6.11643488,8.42802308 C6.18857442,18.3287346 6.09955116,28.2302346 6.20238837,38.1293692 C6.22234186,39.9948692 5.66901628,40.3930423 3.9883186,40.3244462 C0.775039535,40.19435 0.771202326,40.2889654 0.771202326,37.0255231 L0.771202326,21.4865231 Z" id="Fill-13" fill="#FFFFFF" mask="url(#mask-6)"/>
                </g>
                <path d="M149.93927,153.618718 C147.585695,151.956918 145.208181,151.197688 142.580796,151.410335 C139.926478,151.625345 138.092845,153.072923 137.533254,155.795596 C136.684141,159.926468 137.099346,164.141611 137.026779,168.322888 C137.008076,169.405027 137.775643,169.156938 138.345708,169.160876 C140.832447,169.178991 143.322179,169.227821 145.807422,169.142762 C146.97598,169.103383 147.415125,169.386125 147.392681,170.732104 C147.338817,173.905275 147.41288,173.90685 144.332885,173.90685 C142.467082,173.90685 140.594546,174.010023 138.737721,173.873772 C137.330514,173.769811 136.980396,174.226609 136.989373,175.703326 C137.055207,185.915125 136.981144,196.129286 137.065681,206.341085 C137.080643,208.074554 136.677408,208.571519 135.021827,208.491973 C131.959786,208.344695 131.955297,208.454957 131.955297,205.304626 C131.955297,195.485043 131.928365,185.664674 131.984473,175.845091 C131.992703,174.384125 131.742084,173.616232 130.19049,173.891886 C129.645861,173.987971 129.06233,173.833605 128.514709,173.920239 C126.658632,174.21322 126.072857,173.580003 126.00403,171.462981 C125.925478,169.028562 127.002018,169.095507 128.640393,169.141187 C131.953801,169.234121 131.93809,169.168752 131.960534,165.708901 C131.978489,162.697972 131.843079,159.667353 132.124371,156.681627 C132.746804,150.070657 137.512306,146.109903 144.035134,146.530472 C144.159322,146.538348 144.282761,146.559613 144.4062,146.570639 C149.634038,147.014836 150.231783,147.734687 149.93927,153.618718" id="Fill-16" fill="#FFFFFF"/>
                <path d="M41.0327675,187.498949 C41.0327675,181.429087 41.0767558,175.358415 41.0005618,169.289365 C40.9832807,167.870847 41.360323,167.447481 42.735742,167.505066 C45.4096004,167.617801 48.0913139,167.573193 50.7690999,167.520475 C51.7085637,167.501821 52.0023425,167.822995 52,168.789761 C51.9756353,181.266067 51.9756353,193.743185 52,206.220302 C52.0023425,207.193556 51.6952101,207.501753 50.7620303,207.484721 C48.019833,207.433626 45.2721371,207.399562 42.5322962,207.496887 C41.3053377,207.539872 40.9950633,207.144082 41.0068458,205.910483 C41.0641877,199.774116 41.0327675,193.636127 41.0327675,187.498949" id="Fill-18" fill="#FFFFFF"/>
                <path d="M151.443917,31.7113244 C151.405437,28.0976111 148.226046,25.1127122 144.434987,25.132315 C140.652746,25.1521116 137.616853,28.1574982 137.611231,31.8870458 C137.604828,35.7229717 140.678399,38.814249 144.498318,38.8158251 C148.363932,38.816613 151.484802,35.6244732 151.443917,31.7113244 M165.999448,44.0039385 C166.098296,59.5651272 152.904545,72.5204392 136.97873,72.4999758 C120.999203,72.4794638 107.952958,59.6368341 108.000128,43.9747829 C108.046752,28.2134453 121.017641,15.4803459 137.004383,15.5000228 C152.995934,15.5205333 165.897881,28.2047775 165.999448,44.0039385" id="Fill-20" fill="#FFFFFF"/>
            </g>
        </g>
    </g>
</svg>